<?xml version="1.0" encoding="utf-8"?>
<!-- Generator: Adobe Illustrator 16.0.0, SVG Export Plug-In . SVG Version: 6.00 Build 0)  -->
<!DOCTYPE svg PUBLIC "-//W3C//DTD SVG 1.1//EN" "http://www.w3.org/Graphics/SVG/1.1/DTD/svg11.dtd">
<svg version="1.1" id="Layer_1" xmlns="http://www.w3.org/2000/svg" xmlns:xlink="http://www.w3.org/1999/xlink" x="0px" y="0px"
	 width="277.9px" height="50px" viewBox="0 0 277.9 50" enable-background="new 0 0 277.9 50" xml:space="preserve">
<g>
	<g>
		<g>
			<path fill="#64A70B" d="M3.5,12.7c0,0,6.9-11.5,20.2-11.5c0,0,20.5,1.2,14.5,13.4c0,0-5.1,8.2-17.4-2.1c0,0-9.5-7-16.8,0.6
				C4.1,13,3.3,13.6,3.5,12.7z"/>
			<path fill="#64A70B" d="M37.8,2.9c0,0,11.5,6.9,11.5,20.2c0,0-1.199,20.5-13.399,14.5c0,0-8.2-5.1,2.1-17.399c0,0,7-9.5-0.6-16.8
				C37.5,3.5,37,2.7,37.8,2.9z"/>
			<path fill="#64A70B" d="M47.1,37.2c0,0-6.9,11.5-20.2,11.5c0,0-20.5-1.2-14.5-13.4c0,0,5.1-8.2,17.399,2.101
				c0,0,9.5,7,16.801-0.601C46.5,36.9,47.3,36.3,47.1,37.2z"/>
			<path fill="#64A70B" d="M12.8,46.5c0,0-11.5-6.9-11.5-20.2c0,0,1.2-20.5,13.4-14.5c0,0,8.2,5.1-2.1,17.4c0,0-7,9.5,0.6,16.8
				C13.1,45.9,13.6,46.7,12.8,46.5z"/>
		</g>
	</g>
	<g>
		<path fill="#004B91" d="M73.1,21.5c-0.7-0.6-1.7-1.1-2.9-1.6c0.9-0.6,1.7-1.4,2.3-2.3c0.7-1.1,1-2.3,1-3.7c0-1.5-0.399-2.8-1.1-4
			c-0.8-1.2-1.8-2.1-3.101-2.7c-1.3-0.6-3.1-0.8-5.5-0.8H57.6v29.9H66c3,0,5.4-0.8,7.101-2.5c1.8-1.7,2.699-3.8,2.699-6.2
			c0-1.199-0.199-2.3-0.699-3.3C74.6,23.2,73.9,22.3,73.1,21.5 M68.9,16.4c-0.5,0.8-1.2,1.3-2.101,1.6c-0.899,0.4-2.3,0.6-4.3,0.6
			h-1.3V10h3c1.9,0,3.4,0.4,4.2,1c0.8,0.7,1.3,1.6,1.3,2.9C69.7,14.8,69.4,15.7,68.9,16.4 M61.2,22.3h1.3c2.4,0,4.101,0.1,5.101,0.3
			c1.399,0.3,2.5,1,3.3,1.9s1.2,1.9,1.2,3.1c0,0.9-0.301,1.801-0.801,2.7c-0.6,0.8-1.3,1.5-2.199,1.8C68.2,32.5,66.6,32.7,64.5,32.7
			h-3.2L61.2,22.3L61.2,22.3z"/>
		<path fill="#004B91" d="M98.2,17.3c-0.9-1.1-2-2-3.2-2.6c-1.5-0.8-3.1-1.2-5-1.2c-3.1,0-5.899,1.1-8.1,3.4c-2.3,2.3-3.4,5-3.4,8.2
			c0,3.2,1.101,6.1,3.3,8.3C84,35.7,86.7,36.8,89.9,36.8c1.8,0,3.399-0.399,4.899-1.1c1.2-0.601,2.301-1.5,3.4-2.5v3.1h3.5V14h-3.5
			V17.3L98.2,17.3z M96.1,19.2c1.6,1.6,2.3,3.6,2.3,6c0,1.6-0.4,3-1,4.2c-0.7,1.199-1.7,2.3-3,3c-1.3,0.8-2.7,1.1-4.101,1.1
			c-1.399,0-2.8-0.4-4-1.1C85,31.6,84,30.6,83.3,29.3c-0.8-1.3-1.1-2.7-1.1-4.2c0-1.5,0.4-2.9,1.1-4.2c0.801-1.3,1.7-2.3,3-3.1
			c1.301-0.7,2.601-1.1,4.101-1.1C92.5,16.9,94.5,17.7,96.1,19.2"/>
		<path fill="#004B91" d="M122,14.7c-1.3-0.8-2.8-1.3-4.5-1.3c-1.6,0-3.2,0.4-4.6,1.1c-1.101,0.6-2.2,1.5-3.101,2.6V14h-3.5v22.3
			h3.5V28c0-2.8,0.101-4.7,0.4-5.8c0.4-1.6,1.2-2.9,2.5-3.9s2.7-1.6,4.3-1.6c1.4,0,2.5,0.3,3.3,1c0.801,0.7,1.4,1.7,1.7,3
			c0.2,0.8,0.3,2.4,0.3,4.899v10.7h3.5V24.8c0-3-0.3-5.2-0.899-6.6C124.3,16.8,123.3,15.6,122,14.7"/>
		<path fill="#004B91" d="M149,29.9C147.1,32.3,144.6,33.6,141.5,33.6c-1.6,0-3.2-0.399-4.5-1.1s-2.399-1.8-3.1-3.1
			c-0.8-1.301-1.101-2.801-1.101-4.3c0-2.3,0.801-4.3,2.5-5.9c1.7-1.6,3.801-2.4,6.301-2.4c3.1,0,5.699,1.2,7.5,3.6l0.199,0.3
			L152.1,19l-0.2-0.3c-0.7-1.1-1.5-2.1-2.4-2.8c-0.899-0.7-2.1-1.3-3.5-1.8c-1.399-0.4-2.8-0.7-4.2-0.7c-2.3,0-4.5,0.5-6.3,1.6
			s-3.399,2.5-4.5,4.3c-1.1,1.8-1.6,3.9-1.6,6c0,3.2,1.2,5.9,3.5,8.2c2.3,2.2,5.3,3.3,8.7,3.3c2.3,0,4.3-0.399,6.1-1.3
			s3.2-2.2,4.3-3.8l0.2-0.3l-2.8-1.801L149,29.9z"/>
		<path fill="#004B91" d="M174.3,17.3c-0.899-1.1-2.1-2-3.199-2.6c-1.5-0.8-3.101-1.2-5-1.2c-3.101,0-5.9,1.1-8.101,3.4
			c-2.3,2.3-3.399,5-3.399,8.2c0,3.2,1.1,6.1,3.3,8.3c2.2,2.3,4.899,3.399,8.1,3.399c1.8,0,3.4-0.399,4.9-1.1
			c1.2-0.601,2.3-1.5,3.399-2.5v3.1h3.5V14h-3.5V17.3L174.3,17.3L174.3,17.3z M172.1,19.2c1.6,1.6,2.3,3.6,2.3,6c0,1.6-0.3,3-1,4.2
			c-0.7,1.199-1.7,2.3-3,3c-1.3,0.8-2.7,1.1-4.101,1.1c-1.399,0-2.8-0.4-4-1.1c-1.3-0.801-2.3-1.801-3-3.101
			c-0.8-1.3-1.1-2.7-1.1-4.2c0-1.5,0.4-2.9,1.1-4.2c0.801-1.3,1.7-2.3,3-3.1c1.2-0.7,2.601-1.1,4.101-1.1
			C168.6,16.9,170.5,17.7,172.1,19.2"/>
		<path fill="#004B91" d="M211,14.6c-1.2-0.8-2.6-1.2-4.1-1.2c-1.601,0-3.2,0.5-4.601,1.4c-1.199,0.8-2.3,1.9-3.199,3.3
			c-0.4-0.9-0.801-1.7-1.4-2.3c-0.6-0.7-1.5-1.3-2.4-1.7c-1-0.4-2-0.7-3.1-0.7c-1.6,0-3.1,0.4-4.6,1.3c-0.801,0.5-1.601,1.3-2.4,2.2
			v-3h-3.5v22.3h3.5v-9.5c0-2.6,0.3-4.6,0.8-5.9c0.5-1.2,1.3-2.2,2.3-3c1-0.8,2.2-1.1,3.4-1.1c1,0,1.9,0.3,2.7,0.8s1.3,1.2,1.5,2.1
			c0.3,0.9,0.5,2.6,0.5,5.2v11.4h3.5v-8.8c0-3,0.2-5.2,0.8-6.5c0.5-1.3,1.3-2.3,2.3-3c1-0.8,2.2-1.1,3.5-1.1c1,0,1.9,0.2,2.601,0.8
			c0.8,0.5,1.3,1.1,1.6,1.9s0.5,2.4,0.5,4.7v12.1h3.6V24.2c0-2.7-0.3-4.8-0.8-6.2C213.1,16.5,212.2,15.4,211,14.6"/>
		<rect x="219.9" y="14" fill="#004B91" width="3.5" height="22.3"/>
		<path fill="#004B91" d="M247,17.1c-1.1-1.2-2.3-2.1-3.5-2.7c-1.5-0.7-3-1-4.7-1c-2,0-3.899,0.5-5.699,1.6
			c-1.801,1-3.2,2.4-4.301,4.2c-1,1.8-1.6,3.7-1.6,5.8c0,2.1,0.5,3.9,1.5,5.7c1,1.7,2.4,3.1,4.2,4.1s3.7,1.5,5.8,1.5
			c1.7,0,3.4-0.399,4.9-1.1c1.3-0.601,2.3-1.4,3.3-2.4V33c0,2.3-0.3,4-0.8,5s-1.4,1.8-2.601,2.5c-1.3,0.7-2.8,1-4.6,1
			s-3.4-0.3-4.601-1c-1.199-0.7-2.3-1.7-3-3l-0.1-0.2h-3.8l0.2,0.5c0.8,1.7,1.699,3.101,2.6,4c0.9,0.9,2.2,1.601,3.7,2.2
			c1.5,0.5,3.2,0.8,5.1,0.8c2.601,0,4.8-0.6,6.7-1.6c1.9-1.101,3.2-2.7,3.9-4.7c0.5-1.5,0.8-3.7,0.8-6.8V14.1h-3.5L247,17.1
			L247,17.1z M246.1,20.8c0.699,1.2,1,2.6,1,4.2c0,2.4-0.801,4.3-2.2,5.8c-1.5,1.5-3.5,2.2-5.9,2.2c-2.399,0-4.399-0.8-5.899-2.2
			c-1.5-1.5-2.301-3.3-2.301-5.6c0-1.5,0.4-2.9,1.101-4.2c0.8-1.3,1.7-2.3,3.1-3c1.3-0.7,2.7-1.1,4.2-1.1s2.8,0.4,4,1.1
			C244.4,18.6,245.4,19.6,246.1,20.8"/>
		<path fill="#004B91" d="M273.1,14v3.2c-0.9-1.1-2-2-3.2-2.6c-1.5-0.8-3.101-1.2-5-1.2c-3.101,0-5.9,1.1-8.101,3.4
			c-2.3,2.3-3.399,5-3.399,8.2s1.1,6.1,3.3,8.3c2.2,2.3,4.9,3.4,8.1,3.4c1.801,0,3.4-0.4,4.9-1.101c1.2-0.6,2.3-1.5,3.4-2.5V36.2
			h3.5V13.9L273.1,14L273.1,14L273.1,14z M273.3,25.3c0,1.601-0.3,3-1,4.2c-0.699,1.2-1.699,2.3-3,3c-1.3,0.8-2.699,1.1-4.1,1.1
			c-1.5,0-2.8-0.399-4-1.1c-1.3-0.8-2.3-1.8-3-3.1c-0.8-1.301-1.1-2.7-1.1-4.2s0.399-2.9,1.1-4.2c0.8-1.3,1.7-2.3,3-3.1
			c1.2-0.7,2.6-1.1,4.1-1.1c2.301,0,4.2,0.8,5.801,2.4C272.5,20.8,273.3,22.9,273.3,25.3"/>
		<path fill="#004B91" d="M224.4,8c0-1.6-1.3-2.9-2.9-2.9c-1.6,0-2.899,1.3-2.899,2.9s1.3,2.9,2.899,2.9
			C223.1,10.9,224.4,9.6,224.4,8z"/>
	</g>
</g>
</svg>
