<?xml version="1.0" encoding="utf-8"?>
<!-- Generator: Adobe Illustrator 16.0.0, SVG Export Plug-In . SVG Version: 6.00 Build 0)  -->
<!DOCTYPE svg PUBLIC "-//W3C//DTD SVG 1.1//EN" "http://www.w3.org/Graphics/SVG/1.1/DTD/svg11.dtd">
<svg version="1.1" id="Layer_1" xmlns="http://www.w3.org/2000/svg" xmlns:xlink="http://www.w3.org/1999/xlink" x="0px" y="0px"
	 width="411.2px" height="86.6px" viewBox="0 0 411.2 86.6" enable-background="new 0 0 411.2 86.6" xml:space="preserve">
<g>
	<path fill="#56C5D1" d="M385.9,38v-0.1c6-0.7,9.6-6.1,9.6-11.9c0-9.7-6.4-12-16.6-12h-21.5l-10.7,51.1H374
		c10.2,0,19.6-5.7,19.6-16.8C393.5,43.4,390.8,39.3,385.9,38z M373.5,56.4h-14.1v0h-0.6l3-14h11c0.1,0,0.1,0,0.2,0h0.4
		c4.1,0,8.9,0.4,8.9,5.8C382.3,53.6,378.5,56.4,373.5,56.4z M376.7,34.7h-12.7v0h-0.6l2.5-12h11.9c0,0,0,0,0.1,0h0.5
		c3.7,0,6,1.4,6,5.2C384.3,32.4,380.8,34.7,376.7,34.7z"/>
	<g>
		<path fill="#182F58" d="M29.3,45.4c-2.5,0-4.8,1.2-6.3,3.1l-0.1-0.1L25.1,38h-3.4l-6,28.6h3l0.8-3.8h0.1c0.4,2,3.2,4.3,7,4.3
			c7,0,10.9-6.3,10.9-12.7C37.4,49,34.8,45.4,29.3,45.4z M26.5,64c-3.4,0-5.6-1.9-5.6-5.2c0-4.4,2.5-10.5,8.4-10.5
			c3.2,0,4.7,2.6,4.7,5.9C34,58.3,31.4,64,26.5,64z"/>
		<path fill="#182F58" d="M43.9,62.5L43.9,62.5l-2.5-16.4h-3.6l3.6,20.7l-2.1,3.4c-0.8,1.3-1.7,2.2-3.2,2.2c-0.6,0-1.4-0.2-2-0.6
			l-0.6,2.8c0.6,0.3,1.6,0.5,2.4,0.5c3.5,0,5-2.2,6.7-4.9l13.7-24.2h-3.7L43.9,62.5z"/>
	</g>
	<polygon fill="#182F58" points="135.2,38.7 133.9,41.3 135.1,39.2 	"/>
	<g>
		<path fill="#182F58" d="M104.8,47.6c0-10.2-6.3-13.7-15.3-16c-3.9-1-13.6-2.4-13.6-8.1c0-5.3,5.2-7.1,10-7.1
			c5.8,0,16,0.8,17.5,7.3h10.8c-1.5-13.8-15.9-17-27.6-17c-11,0-22.6,5-22.6,17.7c0,9.8,7.2,13.1,14.4,15.3
			c7.1,2.2,14.5,3.3,14.5,8.9c0,5.7-5.8,8.1-10.9,8.1c-7.2,0-12.7-2.5-12.3-10.6H57.8c0,13.8,8,20.3,23.7,20.3
			C92.4,66.4,104.8,61.2,104.8,47.6z"/>
		<path fill="#182F58" d="M161.1,25.1c-5.6,0-10.2,2.2-13.7,6.5h-0.1l1.2-5.4h-3.4l-10.6,21.4l-4.5,17.6h10.7l4.4-20.7
			c1.1-5.4,4.5-10.9,10.9-10.9c2.5,0,5.1,1.7,5.1,4c0,1.1-0.4,3.6-0.7,4.8l-4.7,22.9h10.7l4.8-22.9c0.3-1.4,1.1-5.1,1.1-6.7
			C172.5,28.8,168.5,25.1,161.1,25.1z"/>
		<path fill="#182F58" d="M135.2,40.7l7.1-14.5h-4.1h-6.1L118.7,54h-0.1l-3.4-27.9h-11l6.9,38.6c-1.4,2-2,5.3-7.1,5.3
			c-1.4,0-2.9-0.5-4.4-0.5l-1.8,8.9c1.9,0.1,3.9,0.4,5.7,0.4c8.1,0,11.5-1.5,15.2-8.2l15.3-27.4L135.2,40.7z"/>
		<g>
			<path fill="#182F58" d="M210.9,48.4c0.4-1.9,0.6-4,0.6-6.1c0-11.3-7.3-17.1-18.2-17.1c-13.3,0-21.5,11.6-21.5,24.1
				c0,11.1,6.9,17,17.4,17c11.2,0,16.8-4.7,20.2-13.4h-10.7c-1.6,2.5-3.7,5.4-8,5.4c-5.8,0-8.6-3.1-8.6-7.6c0-0.6,0-1.3,0.1-2.3
				H210.9z M193.9,33.3c6.3,0,7.2,4.3,7.2,8.3h-17.9C184.9,37.3,187.9,33.3,193.9,33.3z"/>
		</g>
		<path fill="#182F58" d="M239.1,25.3c-0.1,0-0.1,0-0.2,0C238.9,25.3,239,25.3,239.1,25.3C239.1,25.3,239.1,25.3,239.1,25.3z"/>
		<path fill="#182F58" d="M240.2,35.9l0.1-0.5l-0.6-0.5c-0.2,0.3-0.3,0.5-0.5,0.8C239.6,35.8,239.9,35.8,240.2,35.9z"/>
		<path fill="#182F58" d="M298.3,38.6l-8.9,15.5h-0.1l-3.4-27.9h-4.6l-2.7,14.9l3.2,23.7c-1.4,2-2,5.3-7.1,5.3
			c-1.4,0-2.9-0.5-4.4-0.5l-1.8,8.9c1.9,0.1,3.9,0.4,5.7,0.4c8.1,0,11.3,1.4,15-5.3l10.4-18.1C297.9,48.9,297,44.7,298.3,38.6z"/>
		<path fill="#182F58" d="M236.8,35.3c0.3-0.6,0.6-1.1,1-1.6c0.9-1.4,1.9-2.6,3-3.6c1.6-1.6,2.8-2.9,4.3-3.8c-4.1-0.9-4.7-1-5.9-0.9
			c-0.1,0-0.2,0-0.3,0c-0.4,0-0.8,0-1.2,0.1c-0.4,0-0.8,0.1-1.1,0.1c-4.7,0.7-8.9,3.4-11,8l-0.2-0.1l1.6-7h-10.2l-8.2,39h10.7
			l3.6-17.3c1.4-6.6,4.4-12.8,12.6-12.8C236.3,35.2,236.2,35.2,236.8,35.3z"/>
		<path fill="#182F58" d="M274.7,47.6L274.7,47.6l2-11.2l1.9-10.2v0H269l-1.2,6h-0.1c-2.2-5.1-6.6-7-11.9-7c-1.5,0-3,0.2-4.3,0.5
			c-0.4,0.2-2,0.5-3.5,1.3c-2.2,1.2-4.7,3-7.1,6.2c-0.3,0.4-0.7,1.3-1,1.7l0.6,0.5l-0.1,0.5c-0.3-0.1-0.6-0.1-0.9-0.2
			c-0.2,0.3-0.4,0.6-0.6,1c-1.8,3.7-2.7,7.9-2.7,12c0,9.6,5.7,15.9,15,15.9c4.4,0,7.9-1.8,10.7-5.5l0.1,0.2
			c-2.1,7.6-4.1,13.6-10.9,13.6c-3.5,0-7.2-1.7-7-5.6h-10.7c0,9.4,8.8,12.8,16.7,12.8c12.9,0,18.9-5,21.5-16.8L274.7,47.6z
			 M253.9,56.5c-5,0-7.2-4-7.2-8.6c0-6.3,3.8-14.7,10.9-14.7c5.2,0,7.7,3.5,7.7,8.5C265.3,48.3,261.6,56.5,253.9,56.5z"/>
		<path fill="#182F58" d="M247.8,27c0.1,0.1,0.3,0.1,0.4,0.2c1.5-0.9,2.7-1.3,3.1-1.5C250.1,26,249,26.4,247.8,27z"/>
		<path fill="#182F58" d="M239.2,35.7c-0.2,0.3-0.3,0.7-0.5,1C238.9,36.4,239.1,36,239.2,35.7C239.2,35.7,239.2,35.7,239.2,35.7z"/>
		<path fill="#182F58" d="M239.7,34.9L239.7,34.9c-0.2,0.2-0.4,0.5-0.5,0.8c0,0,0,0,0,0C239.4,35.4,239.6,35.2,239.7,34.9z"/>
		<path fill="#182F58" d="M240.7,33.6l0.1-0.4c-0.4,0.5-0.7,1.1-1.1,1.7l0.1,0.1C240,34.4,240.4,34,240.7,33.6z"/>
	</g>
	<path fill="#182F58" d="M311.5,38.6C311.5,38.6,311.5,38.6,311.5,38.6c0.2-1.1,0.3-1.7,0.7-3c0-0.1,0-0.1,0.1-0.2
		c0.1-0.5,0.3-1,0.5-1.5c2-5.8,6-10.7,12.1-11.9c0,0,0.1,0,0.1,0c0,0,0.1,0,0.3,0c0.9-0.2,1.7-0.3,2.7-0.3c3.4,0,6.1,0.8,7.9,2.5
		c0.2,0.2,0.4,0.4,0.6,0.6c0,0,0.1,0.1,0.1,0.1c1.1,1.3,1.7,3,1.7,5.4h11.2c0-1.3-0.2-2.5-0.4-3.6c-0.5-2.6-1.8-6-4.7-9
		c-0.3-0.2-0.5-0.5-0.7-0.7c-0.3-0.3-0.7-0.5-1-0.8c-1.9-1.3-4-2.3-6.4-3c0,0-0.1,0-0.1,0c-1.1-0.3-2.3-0.5-3.4-0.7
		c-0.3,0-0.7-0.1-1-0.1c-1.1-0.1-2.3-0.2-3.5-0.2c-3.4,0-9.2,0.6-14.7,4c-0.3,0.2-0.7,0.5-1,0.7c-0.5,0.3-1,0.6-1.4,1
		c-0.7,0.6-1.3,1.2-2,1.8c-0.1,0.1-0.3,0.3-0.4,0.4c-0.3,0.3-0.6,0.7-0.8,1c-2.8,3.2-5.2,7.5-6.6,13.3c-0.2,0.8-0.4,1.7-0.5,2.6
		c0,0,0,0.1,0,0.1c-0.1,0.8-0.2,1.7-0.3,2.6c0,0.3,0,0.6-0.1,1c0,0.8-0.1,1.5-0.1,2.3c0,0.2,0,0.5,0,0.7c0.1,2.2,0.1,3.4,0.7,5.8
		c0.3,1.2,0.7,2.4,1.1,3.7l9.3-14.1C311.5,38.9,311.5,38.8,311.5,38.6z"/>
	<path fill="#56C5D1" d="M325.6,45.9h11.8c-1.9,6.5-5.7,11-14.2,11c-8.1,0-11.6-6.1-11.6-13.1l-8.1,12.9c3.7,6.2,10.3,9.6,19.5,9.6
		c4.7,0,9.5-1.9,12.9-6.4h0.1v5.2h7.1l5.9-27.6h-21.7L325.6,45.9z"/>
</g>
</svg>
